<?xml version="1.0" encoding="UTF-8" standalone="no"?><svg xmlns="http://www.w3.org/2000/svg" xmlns:xlink="http://www.w3.org/1999/xlink" contentStyleType="text/css" height="153px" preserveAspectRatio="none" style="width:1887px;height:153px;background:#FFFFFF;" version="1.1" viewBox="0 0 1887 153" width="1887px" zoomAndPan="magnify"><defs/><g><!--cluster Integer Values--><g id="cluster_Integer Values"><rect fill="none" height="140" rx="2.5" ry="2.5" style="stroke:#181818;stroke-width:1.0;" width="639" x="7" y="7"/><text fill="#000000" font-family="sans-serif" font-size="14" font-weight="bold" lengthAdjust="spacing" textLength="115" x="269" y="21.9951">Integer Values</text></g><!--cluster String Values--><g id="cluster_String Values"><rect fill="none" height="140" rx="2.5" ry="2.5" style="stroke:#181818;stroke-width:1.0;" width="748" x="670" y="7"/><text fill="#000000" font-family="sans-serif" font-size="14" font-weight="bold" lengthAdjust="spacing" textLength="105" x="991.5" y="21.9951">String Values</text></g><!--cluster Array Values--><g id="cluster_Array Values"><rect fill="none" height="140" rx="2.5" ry="2.5" style="stroke:#181818;stroke-width:1.0;" width="439" x="1442" y="7"/><text fill="#000000" font-family="sans-serif" font-size="14" font-weight="bold" lengthAdjust="spacing" textLength="101" x="1611" y="21.9951">Array Values</text></g><rect fill="#F1F1F1" height="81.1875" style="stroke:#181818;stroke-width:0.5;" width="103" x="31.5" y="46"/><text fill="#000000" font-family="sans-serif" font-size="14" lengthAdjust="spacing" textLength="4" x="81" y="60.9951"> </text><line style="stroke:#181818;stroke-width:1.0;" x1="93.5" x2="93.5" y1="66.2969" y2="127.1875"/><line style="stroke:#181818;stroke-width:1.0;" x1="31.5" x2="134.5" y1="66.2969" y2="66.2969"/><text fill="#000000" font-family="sans-serif" font-size="14" lengthAdjust="spacing" textLength="29" x="36.5" y="81.292">Size</text><text fill="#000000" font-family="sans-serif" font-size="14" lengthAdjust="spacing" textLength="31" x="98.5" y="81.292">25%</text><line style="stroke:#181818;stroke-width:1.0;" x1="31.5" x2="134.5" y1="86.5938" y2="86.5938"/><text fill="#000000" font-family="sans-serif" font-size="14" lengthAdjust="spacing" textLength="52" x="36.5" y="101.5889">Distinct</text><text fill="#000000" font-family="sans-serif" font-size="14" lengthAdjust="spacing" textLength="18" x="98.5" y="101.5889">23</text><line style="stroke:#181818;stroke-width:1.0;" x1="31.5" x2="134.5" y1="106.8906" y2="106.8906"/><text fill="#000000" font-family="sans-serif" font-size="14" lengthAdjust="spacing" textLength="27" x="36.5" y="121.8857">Max</text><text fill="#000000" font-family="sans-serif" font-size="14" lengthAdjust="spacing" textLength="27" x="98.5" y="121.8857">300</text><rect fill="#F1F1F1" height="81.1875" style="stroke:#181818;stroke-width:0.5;" width="108" x="186" y="46"/><text fill="#000000" font-family="sans-serif" font-size="14" lengthAdjust="spacing" textLength="4" x="238" y="60.9951"> </text><line style="stroke:#181818;stroke-width:1.0;" x1="248" x2="248" y1="66.2969" y2="127.1875"/><line style="stroke:#181818;stroke-width:1.0;" x1="186" x2="294" y1="66.2969" y2="66.2969"/><text fill="#000000" font-family="sans-serif" font-size="14" lengthAdjust="spacing" textLength="29" x="191" y="81.292">Size</text><text fill="#000000" font-family="sans-serif" font-size="14" lengthAdjust="spacing" textLength="31" x="253" y="81.292">25%</text><line style="stroke:#181818;stroke-width:1.0;" x1="186" x2="294" y1="86.5938" y2="86.5938"/><text fill="#000000" font-family="sans-serif" font-size="14" lengthAdjust="spacing" textLength="52" x="191" y="101.5889">Distinct</text><text fill="#000000" font-family="sans-serif" font-size="14" lengthAdjust="spacing" textLength="18" x="253" y="101.5889">49</text><line style="stroke:#181818;stroke-width:1.0;" x1="186" x2="294" y1="106.8906" y2="106.8906"/><text fill="#000000" font-family="sans-serif" font-size="14" lengthAdjust="spacing" textLength="27" x="191" y="121.8857">Max</text><text fill="#000000" font-family="sans-serif" font-size="14" lengthAdjust="spacing" textLength="36" x="253" y="121.8857">2000</text><rect fill="#F1F1F1" height="81.1875" style="stroke:#181818;stroke-width:0.5;" width="108" x="345" y="46"/><text fill="#000000" font-family="sans-serif" font-size="14" lengthAdjust="spacing" textLength="4" x="397" y="60.9951"> </text><line style="stroke:#181818;stroke-width:1.0;" x1="407" x2="407" y1="66.2969" y2="127.1875"/><line style="stroke:#181818;stroke-width:1.0;" x1="345" x2="453" y1="66.2969" y2="66.2969"/><text fill="#000000" font-family="sans-serif" font-size="14" lengthAdjust="spacing" textLength="29" x="350" y="81.292">Size</text><text fill="#000000" font-family="sans-serif" font-size="14" lengthAdjust="spacing" textLength="31" x="412" y="81.292">25%</text><line style="stroke:#181818;stroke-width:1.0;" x1="345" x2="453" y1="86.5938" y2="86.5938"/><text fill="#000000" font-family="sans-serif" font-size="14" lengthAdjust="spacing" textLength="52" x="350" y="101.5889">Distinct</text><text fill="#000000" font-family="sans-serif" font-size="14" lengthAdjust="spacing" textLength="18" x="412" y="101.5889">88</text><line style="stroke:#181818;stroke-width:1.0;" x1="345" x2="453" y1="106.8906" y2="106.8906"/><text fill="#000000" font-family="sans-serif" font-size="14" lengthAdjust="spacing" textLength="27" x="350" y="121.8857">Max</text><text fill="#000000" font-family="sans-serif" font-size="14" lengthAdjust="spacing" textLength="36" x="412" y="121.8857">8000</text><rect fill="#F1F1F1" height="81.1875" style="stroke:#181818;stroke-width:0.5;" width="117" x="504.5" y="46"/><text fill="#000000" font-family="sans-serif" font-size="14" lengthAdjust="spacing" textLength="4" x="561" y="60.9951"> </text><line style="stroke:#181818;stroke-width:1.0;" x1="566.5" x2="566.5" y1="66.2969" y2="127.1875"/><line style="stroke:#181818;stroke-width:1.0;" x1="504.5" x2="621.5" y1="66.2969" y2="66.2969"/><text fill="#000000" font-family="sans-serif" font-size="14" lengthAdjust="spacing" textLength="29" x="509.5" y="81.292">Size</text><text fill="#000000" font-family="sans-serif" font-size="14" lengthAdjust="spacing" textLength="31" x="571.5" y="81.292">25%</text><line style="stroke:#181818;stroke-width:1.0;" x1="504.5" x2="621.5" y1="86.5938" y2="86.5938"/><text fill="#000000" font-family="sans-serif" font-size="14" lengthAdjust="spacing" textLength="52" x="509.5" y="101.5889">Distinct</text><text fill="#000000" font-family="sans-serif" font-size="14" lengthAdjust="spacing" textLength="9" x="571.5" y="101.5889">3</text><line style="stroke:#181818;stroke-width:1.0;" x1="504.5" x2="621.5" y1="106.8906" y2="106.8906"/><text fill="#000000" font-family="sans-serif" font-size="14" lengthAdjust="spacing" textLength="27" x="509.5" y="121.8857">Max</text><text fill="#000000" font-family="sans-serif" font-size="14" lengthAdjust="spacing" textLength="45" x="571.5" y="121.8857">10000</text><!--entity E--><g id="elem_E"><rect fill="#F1F1F1" height="22.2969" rx="2.5" ry="2.5" style="stroke:#181818;stroke-width:0.5;" width="86" x="686" y="75.5"/><text fill="#000000" font-family="sans-serif" font-size="14" lengthAdjust="spacing" textLength="66" x="696" y="91.4951">Boundary</text></g><rect fill="#F1F1F1" height="81.1875" style="stroke:#181818;stroke-width:0.5;" width="108" x="815" y="46"/><text fill="#000000" font-family="sans-serif" font-size="14" lengthAdjust="spacing" textLength="4" x="867" y="60.9951"> </text><line style="stroke:#181818;stroke-width:1.0;" x1="877" x2="877" y1="66.2969" y2="127.1875"/><line style="stroke:#181818;stroke-width:1.0;" x1="815" x2="923" y1="66.2969" y2="66.2969"/><text fill="#000000" font-family="sans-serif" font-size="14" lengthAdjust="spacing" textLength="29" x="820" y="81.292">Size</text><text fill="#000000" font-family="sans-serif" font-size="14" lengthAdjust="spacing" textLength="31" x="882" y="81.292">25%</text><line style="stroke:#181818;stroke-width:1.0;" x1="815" x2="923" y1="86.5938" y2="86.5938"/><text fill="#000000" font-family="sans-serif" font-size="14" lengthAdjust="spacing" textLength="52" x="820" y="101.5889">Distinct</text><text fill="#000000" font-family="sans-serif" font-size="14" lengthAdjust="spacing" textLength="18" x="882" y="101.5889">92</text><line style="stroke:#181818;stroke-width:1.0;" x1="815" x2="923" y1="106.8906" y2="106.8906"/><text fill="#000000" font-family="sans-serif" font-size="14" lengthAdjust="spacing" textLength="27" x="820" y="121.8857">Max</text><text fill="#000000" font-family="sans-serif" font-size="14" lengthAdjust="spacing" textLength="36" x="882" y="121.8857">A232</text><rect fill="#F1F1F1" height="81.1875" style="stroke:#181818;stroke-width:0.5;" width="107" x="974.5" y="46"/><text fill="#000000" font-family="sans-serif" font-size="14" lengthAdjust="spacing" textLength="4" x="1026" y="60.9951"> </text><line style="stroke:#181818;stroke-width:1.0;" x1="1036.5" x2="1036.5" y1="66.2969" y2="127.1875"/><line style="stroke:#181818;stroke-width:1.0;" x1="974.5" x2="1081.5" y1="66.2969" y2="66.2969"/><text fill="#000000" font-family="sans-serif" font-size="14" lengthAdjust="spacing" textLength="29" x="979.5" y="81.292">Size</text><text fill="#000000" font-family="sans-serif" font-size="14" lengthAdjust="spacing" textLength="31" x="1041.5" y="81.292">25%</text><line style="stroke:#181818;stroke-width:1.0;" x1="974.5" x2="1081.5" y1="86.5938" y2="86.5938"/><text fill="#000000" font-family="sans-serif" font-size="14" lengthAdjust="spacing" textLength="52" x="979.5" y="101.5889">Distinct</text><text fill="#000000" font-family="sans-serif" font-size="14" lengthAdjust="spacing" textLength="18" x="1041.5" y="101.5889">23</text><line style="stroke:#181818;stroke-width:1.0;" x1="974.5" x2="1081.5" y1="106.8906" y2="106.8906"/><text fill="#000000" font-family="sans-serif" font-size="14" lengthAdjust="spacing" textLength="27" x="979.5" y="121.8857">Max</text><text fill="#000000" font-family="sans-serif" font-size="14" lengthAdjust="spacing" textLength="35" x="1041.5" y="121.8857">F348</text><rect fill="#F1F1F1" height="81.1875" style="stroke:#181818;stroke-width:0.5;" width="106" x="1133" y="46"/><text fill="#000000" font-family="sans-serif" font-size="14" lengthAdjust="spacing" textLength="4" x="1184" y="60.9951"> </text><line style="stroke:#181818;stroke-width:1.0;" x1="1195" x2="1195" y1="66.2969" y2="127.1875"/><line style="stroke:#181818;stroke-width:1.0;" x1="1133" x2="1239" y1="66.2969" y2="66.2969"/><text fill="#000000" font-family="sans-serif" font-size="14" lengthAdjust="spacing" textLength="29" x="1138" y="81.292">Size</text><text fill="#000000" font-family="sans-serif" font-size="14" lengthAdjust="spacing" textLength="31" x="1200" y="81.292">25%</text><line style="stroke:#181818;stroke-width:1.0;" x1="1133" x2="1239" y1="86.5938" y2="86.5938"/><text fill="#000000" font-family="sans-serif" font-size="14" lengthAdjust="spacing" textLength="52" x="1138" y="101.5889">Distinct</text><text fill="#000000" font-family="sans-serif" font-size="14" lengthAdjust="spacing" textLength="18" x="1200" y="101.5889">20</text><line style="stroke:#181818;stroke-width:1.0;" x1="1133" x2="1239" y1="106.8906" y2="106.8906"/><text fill="#000000" font-family="sans-serif" font-size="14" lengthAdjust="spacing" textLength="27" x="1138" y="121.8857">Max</text><text fill="#000000" font-family="sans-serif" font-size="14" lengthAdjust="spacing" textLength="34" x="1200" y="121.8857">L283</text><rect fill="#F1F1F1" height="81.1875" style="stroke:#181818;stroke-width:0.5;" width="103" x="1290.5" y="46"/><text fill="#000000" font-family="sans-serif" font-size="14" lengthAdjust="spacing" textLength="4" x="1340" y="60.9951"> </text><line style="stroke:#181818;stroke-width:1.0;" x1="1352.5" x2="1352.5" y1="66.2969" y2="127.1875"/><line style="stroke:#181818;stroke-width:1.0;" x1="1290.5" x2="1393.5" y1="66.2969" y2="66.2969"/><text fill="#000000" font-family="sans-serif" font-size="14" lengthAdjust="spacing" textLength="29" x="1295.5" y="81.292">Size</text><text fill="#000000" font-family="sans-serif" font-size="14" lengthAdjust="spacing" textLength="31" x="1357.5" y="81.292">25%</text><line style="stroke:#181818;stroke-width:1.0;" x1="1290.5" x2="1393.5" y1="86.5938" y2="86.5938"/><text fill="#000000" font-family="sans-serif" font-size="14" lengthAdjust="spacing" textLength="52" x="1295.5" y="101.5889">Distinct</text><text fill="#000000" font-family="sans-serif" font-size="14" lengthAdjust="spacing" textLength="9" x="1357.5" y="101.5889">3</text><line style="stroke:#181818;stroke-width:1.0;" x1="1290.5" x2="1393.5" y1="106.8906" y2="106.8906"/><text fill="#000000" font-family="sans-serif" font-size="14" lengthAdjust="spacing" textLength="27" x="1295.5" y="121.8857">Max</text><text fill="#000000" font-family="sans-serif" font-size="14" lengthAdjust="spacing" textLength="28" x="1357.5" y="121.8857">Z82</text><!--entity J--><g id="elem_J"><rect fill="#F1F1F1" height="22.2969" rx="2.5" ry="2.5" style="stroke:#181818;stroke-width:0.5;" width="86" x="1458" y="75.5"/><text fill="#000000" font-family="sans-serif" font-size="14" lengthAdjust="spacing" textLength="66" x="1468" y="91.4951">Boundary</text></g><rect fill="#F1F1F1" height="81.1875" style="stroke:#181818;stroke-width:0.5;" width="109" x="1587.5" y="46"/><text fill="#000000" font-family="sans-serif" font-size="14" lengthAdjust="spacing" textLength="4" x="1640" y="60.9951"> </text><line style="stroke:#181818;stroke-width:1.0;" x1="1649.5" x2="1649.5" y1="66.2969" y2="127.1875"/><line style="stroke:#181818;stroke-width:1.0;" x1="1587.5" x2="1696.5" y1="66.2969" y2="66.2969"/><text fill="#000000" font-family="sans-serif" font-size="14" lengthAdjust="spacing" textLength="29" x="1592.5" y="81.292">Size</text><text fill="#000000" font-family="sans-serif" font-size="14" lengthAdjust="spacing" textLength="31" x="1654.5" y="81.292">25%</text><line style="stroke:#181818;stroke-width:1.0;" x1="1587.5" x2="1696.5" y1="86.5938" y2="86.5938"/><text fill="#000000" font-family="sans-serif" font-size="14" lengthAdjust="spacing" textLength="52" x="1592.5" y="101.5889">Distinct</text><text fill="#000000" font-family="sans-serif" font-size="14" lengthAdjust="spacing" textLength="18" x="1654.5" y="101.5889">48</text><line style="stroke:#181818;stroke-width:1.0;" x1="1587.5" x2="1696.5" y1="106.8906" y2="106.8906"/><text fill="#000000" font-family="sans-serif" font-size="14" lengthAdjust="spacing" textLength="27" x="1592.5" y="121.8857">Max</text><text fill="#000000" font-family="sans-serif" font-size="14" lengthAdjust="spacing" textLength="37" x="1654.5" y="121.8857">[234]</text><rect fill="#F1F1F1" height="81.1875" style="stroke:#181818;stroke-width:0.5;" width="109" x="1747.5" y="46"/><text fill="#000000" font-family="sans-serif" font-size="14" lengthAdjust="spacing" textLength="4" x="1800" y="60.9951"> </text><line style="stroke:#181818;stroke-width:1.0;" x1="1809.5" x2="1809.5" y1="66.2969" y2="127.1875"/><line style="stroke:#181818;stroke-width:1.0;" x1="1747.5" x2="1856.5" y1="66.2969" y2="66.2969"/><text fill="#000000" font-family="sans-serif" font-size="14" lengthAdjust="spacing" textLength="29" x="1752.5" y="81.292">Size</text><text fill="#000000" font-family="sans-serif" font-size="14" lengthAdjust="spacing" textLength="31" x="1814.5" y="81.292">25%</text><line style="stroke:#181818;stroke-width:1.0;" x1="1747.5" x2="1856.5" y1="86.5938" y2="86.5938"/><text fill="#000000" font-family="sans-serif" font-size="14" lengthAdjust="spacing" textLength="52" x="1752.5" y="101.5889">Distinct</text><text fill="#000000" font-family="sans-serif" font-size="14" lengthAdjust="spacing" textLength="18" x="1814.5" y="101.5889">28</text><line style="stroke:#181818;stroke-width:1.0;" x1="1747.5" x2="1856.5" y1="106.8906" y2="106.8906"/><text fill="#000000" font-family="sans-serif" font-size="14" lengthAdjust="spacing" textLength="27" x="1752.5" y="121.8857">Max</text><text fill="#000000" font-family="sans-serif" font-size="14" lengthAdjust="spacing" textLength="37" x="1814.5" y="121.8857">[948]</text><!--link A to B--><g id="link_A_B"><path d="M142.35,87 C154.08,87 166.41,87 178.21,87 " fill="none" id="A-B" style="stroke:#181818;stroke-width:1.0;stroke-dasharray:7.0,7.0;"/></g><!--link B to C--><g id="link_B_C"><path d="M301.93,87 C313.53,87 325.65,87 337.24,87 " fill="none" id="B-C" style="stroke:#181818;stroke-width:1.0;stroke-dasharray:7.0,7.0;"/></g><!--link C to D--><g id="link_C_D"><path d="M460.53,87 C472.35,87 484.77,87 496.73,87 " fill="none" id="C-D" style="stroke:#181818;stroke-width:1.0;stroke-dasharray:7.0,7.0;"/></g><!--link D to E--><g id="link_D_E"><path d="M629.08,87 C648.07,87 668.29,87 685.54,87 " fill="none" id="D-E" style="stroke:#181818;stroke-width:1.0;stroke-dasharray:7.0,7.0;"/></g><!--link E to F--><g id="link_E_F"><path d="M772.15,87 C783.23,87 795.38,87 807.21,87 " fill="none" id="E-F" style="stroke:#181818;stroke-width:1.0;stroke-dasharray:7.0,7.0;"/></g><!--link F to G--><g id="link_F_G"><path d="M930.93,87 C942.61,87 954.83,87 966.5,87 " fill="none" id="F-G" style="stroke:#181818;stroke-width:1.0;stroke-dasharray:7.0,7.0;"/></g><!--link G to H--><g id="link_G_H"><path d="M1089.09,87 C1100.9,87 1113.27,87 1125.08,87 " fill="none" id="G-H" style="stroke:#181818;stroke-width:1.0;stroke-dasharray:7.0,7.0;"/></g><!--link H to I--><g id="link_H_I"><path d="M1246.76,87 C1258.57,87 1270.93,87 1282.69,87 " fill="none" id="H-I" style="stroke:#181818;stroke-width:1.0;stroke-dasharray:7.0,7.0;"/></g><!--link I to J--><g id="link_I_J"><path d="M1401.21,87 C1419.92,87 1440.25,87 1457.64,87 " fill="none" id="I-J" style="stroke:#181818;stroke-width:1.0;stroke-dasharray:7.0,7.0;"/></g><!--link J to K--><g id="link_J_K"><path d="M1544.46,87 C1555.54,87 1567.68,87 1579.51,87 " fill="none" id="J-K" style="stroke:#181818;stroke-width:1.0;stroke-dasharray:7.0,7.0;"/></g><!--link K to L--><g id="link_K_L"><path d="M1704.32,87 C1715.9,87 1728,87 1739.59,87 " fill="none" id="K-L" style="stroke:#181818;stroke-width:1.0;stroke-dasharray:7.0,7.0;"/></g><!--SRC=[dPDHIyCm4CVV-ocE0zz4QbeXywrTrwtRV9hueEmXTB56ktIa6MpAlhitdOEKWc4K-YD7-EN-rxJzK7eZZ5Z3IhwARMqVvSucjQhqMceB9Rsa2ThphbffQVSR2OsnRqqG65bQeQjQ0XQqjP86daIzbIt2Lm3mtZOQa1xHGl9J0S25-fHu3yZkhl3wjvIfrYfTMYgpw5Hx43jQHc58oqF7bVgvue7ZOc6lREWduzoHyNvPvYTpGzw6VxA3CzA5DKfNpaHBOLQ0QRFLAs7sFqUEEYtaVYqCcDC39YnYs9DeVD5tmpoAUPzkugaBNTsSyQXFLrmoRtpcfwZkl1DZnFw_SKyx7Smyxw9xVV25HV6oBz7SSq1Tto3cotCeeD_j1b9YIXmIXyICc16FDsP4p8avSKmS4oV42R4W5iHZr2bnHfmHvzy0]--></g></svg>