<?xml version="1.0" encoding="UTF-8" standalone="no"?><svg xmlns="http://www.w3.org/2000/svg" xmlns:xlink="http://www.w3.org/1999/xlink" contentStyleType="text/css" height="462px" preserveAspectRatio="none" style="width:1183px;height:462px;background:#FFFFFF;" version="1.1" viewBox="0 0 1183 462" width="1183px" zoomAndPan="magnify"><defs/><g><!--cluster F--><g id="cluster_F"><rect fill="none" height="449" rx="2.5" ry="2.5" style="stroke:#181818;stroke-width:1.0;" width="161" x="469" y="7"/><text fill="#000000" font-family="sans-serif" font-size="14" font-weight="bold" lengthAdjust="spacing" textLength="76" x="511.5" y="21.9951">Optimizer</text></g><rect fill="#F1F1F1" height="101.4844" style="stroke:#181818;stroke-width:0.5;" width="113" x="493" y="46.5"/><text fill="#000000" font-family="sans-serif" font-size="14" lengthAdjust="spacing" textLength="42" x="520.8333" y="61.4951">Plan A</text><path d="M575.3117,51.9635 L574.5067,52.8035 L571.2633,56.0469 L570.3183,55.1369 L569.4783,54.2969 L567.8333,55.9419 L568.6733,56.7819 L570.4233,58.5319 L571.2283,59.3719 L572.0683,58.5319 L576.1517,54.4485 L576.9917,53.6085 L575.3117,51.9635 " fill="#32CD32" style="stroke:;stroke-width:0.0;stroke-dasharray:;"/><line style="stroke:#181818;stroke-width:1.0;" x1="578" x2="578" y1="66.7969" y2="147.9844"/><line style="stroke:#181818;stroke-width:1.0;" x1="493" x2="606" y1="66.7969" y2="66.7969"/><text fill="#000000" font-family="sans-serif" font-size="14" lengthAdjust="spacing" textLength="70" x="498" y="81.792">Scan Cost</text><text fill="#000000" font-family="sans-serif" font-size="14" lengthAdjust="spacing" textLength="18" x="583" y="81.792">12</text><line style="stroke:#181818;stroke-width:1.0;" x1="493" x2="606" y1="87.0938" y2="87.0938"/><text fill="#000000" font-family="sans-serif" font-size="14" lengthAdjust="spacing" textLength="75" x="498" y="102.0889">Fetch Cost</text><text fill="#000000" font-family="sans-serif" font-size="14" lengthAdjust="spacing" textLength="18" x="583" y="102.0889">17</text><line style="stroke:#181818;stroke-width:1.0;" x1="493" x2="606" y1="107.3906" y2="107.3906"/><text fill="#000000" font-family="sans-serif" font-size="14" lengthAdjust="spacing" textLength="60" x="498" y="122.3857">Join Cost</text><text fill="#000000" font-family="sans-serif" font-size="14" lengthAdjust="spacing" textLength="9" x="583" y="122.3857">7</text><line style="stroke:#181818;stroke-width:1.0;" x1="493" x2="606" y1="127.6875" y2="127.6875"/><text fill="#000000" font-family="sans-serif" font-size="14" lengthAdjust="spacing" textLength="34" x="498" y="142.6826">Total</text><text fill="#000000" font-family="sans-serif" font-size="14" lengthAdjust="spacing" textLength="18" x="583" y="142.6826">23</text><rect fill="#F1F1F1" height="101.4844" style="stroke:#181818;stroke-width:0.5;" width="113" x="493" y="190.5"/><text fill="#000000" font-family="sans-serif" font-size="14" lengthAdjust="spacing" textLength="43" x="520.3333" y="205.4951">Plan B</text><path d="M569.9783,195.9635 L568.3333,197.6085 L569.1733,198.4485 L571.25,200.5602 L569.1733,202.6369 L568.3333,203.4419 L569.9783,205.1219 L570.8183,204.2819 L572.93,202.1702 L575.0067,204.2819 L575.8117,205.1219 L577.4917,203.4419 L576.6517,202.6369 L574.54,200.5602 L576.6517,198.4485 L577.4917,197.6085 L575.8117,195.9635 L575.0067,196.8035 L572.93,198.8802 L570.8183,196.8035 L569.9783,195.9635 " fill="#FF0000" style="stroke:;stroke-width:0.0;stroke-dasharray:;"/><line style="stroke:#181818;stroke-width:1.0;" x1="578" x2="578" y1="210.7969" y2="291.9844"/><line style="stroke:#181818;stroke-width:1.0;" x1="493" x2="606" y1="210.7969" y2="210.7969"/><text fill="#000000" font-family="sans-serif" font-size="14" lengthAdjust="spacing" textLength="70" x="498" y="225.792">Scan Cost</text><text fill="#000000" font-family="sans-serif" font-size="14" lengthAdjust="spacing" textLength="18" x="583" y="225.792">20</text><line style="stroke:#181818;stroke-width:1.0;" x1="493" x2="606" y1="231.0938" y2="231.0938"/><text fill="#000000" font-family="sans-serif" font-size="14" lengthAdjust="spacing" textLength="75" x="498" y="246.0889">Fetch Cost</text><text fill="#000000" font-family="sans-serif" font-size="14" lengthAdjust="spacing" textLength="18" x="583" y="246.0889">25</text><line style="stroke:#181818;stroke-width:1.0;" x1="493" x2="606" y1="251.3906" y2="251.3906"/><text fill="#000000" font-family="sans-serif" font-size="14" lengthAdjust="spacing" textLength="60" x="498" y="266.3857">Join Cost</text><text fill="#000000" font-family="sans-serif" font-size="14" lengthAdjust="spacing" textLength="9" x="583" y="266.3857">7</text><line style="stroke:#181818;stroke-width:1.0;" x1="493" x2="606" y1="271.6875" y2="271.6875"/><text fill="#000000" font-family="sans-serif" font-size="14" lengthAdjust="spacing" textLength="34" x="498" y="286.6826">Total</text><text fill="#000000" font-family="sans-serif" font-size="14" lengthAdjust="spacing" textLength="18" x="583" y="286.6826">52</text><rect fill="#F1F1F1" height="101.4844" style="stroke:#181818;stroke-width:0.5;" width="113" x="493" y="334.5"/><text fill="#000000" font-family="sans-serif" font-size="14" lengthAdjust="spacing" textLength="43" x="520.3333" y="349.4951">Plan C</text><path d="M569.9783,339.9635 L568.3333,341.6085 L569.1733,342.4485 L571.25,344.5602 L569.1733,346.6369 L568.3333,347.4419 L569.9783,349.1219 L570.8183,348.2819 L572.93,346.1702 L575.0067,348.2819 L575.8117,349.1219 L577.4917,347.4419 L576.6517,346.6369 L574.54,344.5602 L576.6517,342.4485 L577.4917,341.6085 L575.8117,339.9635 L575.0067,340.8035 L572.93,342.8802 L570.8183,340.8035 L569.9783,339.9635 " fill="#FF0000" style="stroke:;stroke-width:0.0;stroke-dasharray:;"/><line style="stroke:#181818;stroke-width:1.0;" x1="578" x2="578" y1="354.7969" y2="435.9844"/><line style="stroke:#181818;stroke-width:1.0;" x1="493" x2="606" y1="354.7969" y2="354.7969"/><text fill="#000000" font-family="sans-serif" font-size="14" lengthAdjust="spacing" textLength="70" x="498" y="369.792">Scan Cost</text><text fill="#000000" font-family="sans-serif" font-size="14" lengthAdjust="spacing" textLength="18" x="583" y="369.792">18</text><line style="stroke:#181818;stroke-width:1.0;" x1="493" x2="606" y1="375.0938" y2="375.0938"/><text fill="#000000" font-family="sans-serif" font-size="14" lengthAdjust="spacing" textLength="75" x="498" y="390.0889">Fetch Cost</text><text fill="#000000" font-family="sans-serif" font-size="14" lengthAdjust="spacing" textLength="18" x="583" y="390.0889">36</text><line style="stroke:#181818;stroke-width:1.0;" x1="493" x2="606" y1="395.3906" y2="395.3906"/><text fill="#000000" font-family="sans-serif" font-size="14" lengthAdjust="spacing" textLength="60" x="498" y="410.3857">Join Cost</text><text fill="#000000" font-family="sans-serif" font-size="14" lengthAdjust="spacing" textLength="18" x="583" y="410.3857">14</text><line style="stroke:#181818;stroke-width:1.0;" x1="493" x2="606" y1="415.6875" y2="415.6875"/><text fill="#000000" font-family="sans-serif" font-size="14" lengthAdjust="spacing" textLength="34" x="498" y="430.6826">Total</text><text fill="#000000" font-family="sans-serif" font-size="14" lengthAdjust="spacing" textLength="18" x="583" y="430.6826">68</text><!--entity E--><g id="elem_E"><path d="M318,33.5 L420,33.5 C425,33.5 425,54.7969 425,54.7969 C425,54.7969 425,76.0938 420,76.0938 L318,76.0938 C313,76.0938 313,54.7969 313,54.7969 C313,54.7969 313,33.5 318,33.5 " fill="#F1F1F1" style="stroke:#181818;stroke-width:0.5;"/><path d="M420,33.5 C415,33.5 415,54.7969 415,54.7969 C415,76.0938 420,76.0938 420,76.0938 " fill="none" style="stroke:#181818;stroke-width:0.5;"/><text fill="#000000" font-family="sans-serif" font-size="14" lengthAdjust="spacing" textLength="92" x="318" y="51.4951">Statistics and</text><text fill="#000000" font-family="sans-serif" font-size="14" lengthAdjust="spacing" textLength="64" x="332" y="67.792">Metadata</text></g><!--entity A--><g id="elem_A"><rect fill="#F1F1F1" height="55.5938" rx="2.5" ry="2.5" style="stroke:#181818;stroke-width:0.5;" width="102" x="7" y="68"/><polygon fill="#F1F1F1" points="92,73,92,87,104,87,104,79,98,73,92,73" style="stroke:#181818;stroke-width:0.5;"/><line style="stroke:#181818;stroke-width:0.5;" x1="98" x2="98" y1="73" y2="79"/><line style="stroke:#181818;stroke-width:0.5;" x1="104" x2="98" y1="79" y2="79"/><text fill="#000000" font-family="sans-serif" font-size="14" lengthAdjust="spacing" textLength="51" x="27.5" y="93.9951">SQL++</text><text fill="#000000" font-family="sans-serif" font-size="14" lengthAdjust="spacing" textLength="72" x="17" y="110.292">Statement</text></g><!--entity B--><g id="elem_B"><rect fill="#F1F1F1" height="52.5938" rx="2.5" ry="2.5" style="stroke:#181818;stroke-width:0.5;" width="71" x="175.5" y="69.5"/><text fill="#000000" font-family="sans-serif" font-size="14" lengthAdjust="spacing" textLength="51" x="185.5" y="92.4951">SQL++</text><text fill="#000000" font-family="sans-serif" font-size="14" lengthAdjust="spacing" textLength="44" x="189" y="108.792">Parser</text></g><!--entity C--><g id="elem_C"><path d="M174,157.5 L248,157.5 C253,157.5 253,178.7969 253,178.7969 C253,178.7969 253,200.0938 248,200.0938 L174,200.0938 C169,200.0938 169,178.7969 169,178.7969 C169,178.7969 169,157.5 174,157.5 " fill="#F1F1F1" style="stroke:#181818;stroke-width:0.5;"/><path d="M248,157.5 C243,157.5 243,178.7969 243,178.7969 C243,200.0938 248,200.0938 248,200.0938 " fill="none" style="stroke:#181818;stroke-width:0.5;"/><text fill="#000000" font-family="sans-serif" font-size="14" lengthAdjust="spacing" textLength="51" x="180.5" y="175.4951">System</text><text fill="#000000" font-family="sans-serif" font-size="14" lengthAdjust="spacing" textLength="64" x="174" y="191.792">Metadata</text></g><!--entity D--><g id="elem_D"><rect fill="#F1F1F1" height="52.5938" rx="2.5" ry="2.5" style="stroke:#181818;stroke-width:0.5;" width="84" x="327" y="111.5"/><text fill="#000000" font-family="sans-serif" font-size="14" lengthAdjust="spacing" textLength="64" x="337" y="134.4951">Semantic</text><text fill="#000000" font-family="sans-serif" font-size="14" lengthAdjust="spacing" textLength="58" x="340" y="150.792">Analyzer</text></g><!--entity G--><g id="elem_G"><path d="M702,29 L702,76.5938 A2.5,2.5 0 0 0 704.5,79.0938 L812.5,79.0938 A2.5,2.5 0 0 0 815,76.5938 L815,36.5 L805,26.5 L704.5,26.5 A2.5,2.5 0 0 0 702,29 " fill="#F1F1F1" style="stroke:#181818;stroke-width:0.5;"/><path d="M805,26.5 L805,34 A2.5,2.5 0 0 0 807.5,36.5 L815,36.5 " fill="#F1F1F1" style="stroke:#181818;stroke-width:0.5;"/><text fill="#000000" font-family="sans-serif" font-size="14" lengthAdjust="spacing" textLength="93" x="712" y="49.4951">Query Explain</text><text fill="#000000" font-family="sans-serif" font-size="14" lengthAdjust="spacing" textLength="29" x="744" y="65.792">Plan</text></g><!--entity H--><g id="elem_H"><path d="M674,117 L674,164.5938 A2.5,2.5 0 0 0 676.5,167.0938 L840.5,167.0938 A2.5,2.5 0 0 0 843,164.5938 L843,124.5 L833,114.5 L676.5,114.5 A2.5,2.5 0 0 0 674,117 " fill="#F1F1F1" style="stroke:#181818;stroke-width:0.5;"/><path d="M833,114.5 L833,122 A2.5,2.5 0 0 0 835.5,124.5 L843,124.5 " fill="#F1F1F1" style="stroke:#181818;stroke-width:0.5;"/><text fill="#000000" font-family="sans-serif" font-size="14" lengthAdjust="spacing" textLength="149" x="684" y="137.4951">Query Execution Tree</text><text fill="#000000" font-family="sans-serif" font-size="14" lengthAdjust="spacing" textLength="84" x="716.5" y="153.792">(Query Plan)</text></g><!--entity I--><g id="elem_I"><rect fill="#F1F1F1" height="36.2969" rx="2.5" ry="2.5" style="stroke:#181818;stroke-width:0.5;" width="81" x="903" y="123"/><text fill="#000000" font-family="sans-serif" font-size="14" lengthAdjust="spacing" textLength="61" x="913" y="145.9951">Executor</text></g><!--entity J--><g id="elem_J"><rect fill="#F1F1F1" height="55.5938" rx="2.5" ry="2.5" style="stroke:#181818;stroke-width:0.5;" width="127" x="1044" y="71"/><polygon fill="#F1F1F1" points="1154,76,1154,90,1166,90,1166,82,1160,76,1154,76" style="stroke:#181818;stroke-width:0.5;"/><line style="stroke:#181818;stroke-width:0.5;" x1="1160" x2="1160" y1="76" y2="82"/><line style="stroke:#181818;stroke-width:0.5;" x1="1166" x2="1160" y1="82" y2="82"/><text fill="#000000" font-family="sans-serif" font-size="14" lengthAdjust="spacing" textLength="76" x="1064.5" y="96.9951">Debug Info</text><text fill="#000000" font-family="sans-serif" font-size="14" lengthAdjust="spacing" textLength="97" x="1054" y="113.292">(Query Profile)</text></g><!--entity K--><g id="elem_K"><rect fill="#F1F1F1" height="39.2969" rx="2.5" ry="2.5" style="stroke:#181818;stroke-width:0.5;" width="127" x="1044" y="162.5"/><polygon fill="#F1F1F1" points="1154,167.5,1154,181.5,1166,181.5,1166,173.5,1160,167.5,1154,167.5" style="stroke:#181818;stroke-width:0.5;"/><line style="stroke:#181818;stroke-width:0.5;" x1="1160" x2="1160" y1="167.5" y2="173.5"/><line style="stroke:#181818;stroke-width:0.5;" x1="1166" x2="1160" y1="173.5" y2="173.5"/><text fill="#000000" font-family="sans-serif" font-size="14" lengthAdjust="spacing" textLength="97" x="1054" y="188.4951">Query Results</text></g><!--link A to B--><g id="link_A_B"><path d="M109.28,96 C128.7,96 150.64,96 169.08,96 " fill="none" id="A-to-B" style="stroke:#181818;stroke-width:1.0;"/><polygon fill="#181818" points="173.67,96,164.67,92,168.67,96,164.67,100,173.67,96" style="stroke:#181818;stroke-width:1.0;"/></g><!--link B to D--><g id="link_B_D"><path d="M246.62,105.32 C268.29,111.16 296.51,118.75 320.29,125.16 " fill="none" id="B-to-D" style="stroke:#181818;stroke-width:1.0;"/><polygon fill="#181818" points="325.09,126.45,317.4394,120.2478,320.2619,125.1501,315.3596,127.9727,325.09,126.45" style="stroke:#181818;stroke-width:1.0;"/></g><!--link C to D--><g id="link_C_D"><path d="M253.4,168.12 C274.02,162.7 299.05,156.12 320.46,150.5 " fill="none" id="C-to-D" style="stroke:#181818;stroke-width:1.0;"/><polygon fill="#181818" points="325.22,149.24,315.4993,147.6565,320.3839,150.5097,317.5307,155.3943,325.22,149.24" style="stroke:#181818;stroke-width:1.0;"/></g><!--link D to X--><g id="link_D_X"><path d="M411.4,128.49 C431.54,123.87 456.29,118.18 479.19,112.92 " fill="none" id="D-to-X" style="stroke:#181818;stroke-width:1.0;"/><polygon fill="#181818" points="483.81,111.86,474.1394,109.9945,478.939,112.9885,475.945,117.788,483.81,111.86" style="stroke:#181818;stroke-width:1.0;"/></g><!--link E to X--><g id="link_E_X"><path d="M425.01,67.94 C442.13,71.97 461.23,76.47 479.19,80.69 " fill="none" id="E-to-X" style="stroke:#181818;stroke-width:1.0;"/><polygon fill="#181818" points="483.76,81.77,475.9281,75.7983,478.8954,80.6145,474.0792,83.5818,483.76,81.77" style="stroke:#181818;stroke-width:1.0;"/></g><!--link X to G--><g id="link_X_G"><path d="M613.73,83.56 C639.71,78.04 669.7,71.66 695.54,66.17 " fill="none" id="X-to-G" style="stroke:#181818;stroke-width:1.0;"/><polygon fill="#181818" points="700.19,65.18,690.559,63.1199,695.2973,66.2101,692.2071,70.9483,700.19,65.18" style="stroke:#181818;stroke-width:1.0;"/></g><!--link X to H--><g id="link_X_H"><path d="M613.73,110.44 C630.72,114.05 649.41,118.03 667.55,121.88 " fill="none" id="X-to-H" style="stroke:#181818;stroke-width:1.0;"/><polygon fill="#181818" points="672.19,122.87,664.2233,117.0794,667.3002,121.8263,662.5533,124.9031,672.19,122.87" style="stroke:#181818;stroke-width:1.0;"/></g><!--link H to I--><g id="link_H_I"><path d="M843.23,141 C861.51,141 880.21,141 896.37,141 " fill="none" id="H-to-I" style="stroke:#181818;stroke-width:1.0;"/><polygon fill="#181818" points="901.16,141,892.16,137,896.16,141,892.16,145,901.16,141" style="stroke:#181818;stroke-width:1.0;"/></g><!--link I to J--><g id="link_I_J"><path d="M984.13,130.73 C1000.2,126.56 1019.25,121.62 1037.47,116.9 " fill="none" id="I-to-J" style="stroke:#181818;stroke-width:1.0;"/><polygon fill="#181818" points="1042.15,115.68,1032.437,114.0497,1037.3078,116.9264,1034.4312,121.7972,1042.15,115.68" style="stroke:#181818;stroke-width:1.0;"/></g><!--link I to K--><g id="link_I_K"><path d="M984.13,151.03 C1000.2,155.1 1019.25,159.92 1037.47,164.53 " fill="none" id="I-to-K" style="stroke:#181818;stroke-width:1.0;"/><polygon fill="#181818" points="1042.14,165.71,1034.3999,159.6197,1037.2935,164.4805,1032.4327,167.3741,1042.14,165.71" style="stroke:#181818;stroke-width:1.0;"/></g><!--SRC=[RPFBRjim44Nt_8g15aMBD42jD0y4WG7vaTXEYYQj5sxXpPGQoMmeqYKfm6wHVoz9oNRgQgCBpRsZCy2CxBDGQpHOGKu5rjBDQUCoAKfLaNB0_OCCarGuS1gCA5SESc68Ew4LOxzggWcIhmwTi4vm2wZofVf43dDqc01Q63CqJXJ8dGy-FPoSB5N8Km34GCQm3B2T-uZ6aedMO4_OMjznzENXlf4gL1w_L9b2kVtTTeyO2vEYAYN1vxKJbV1MS6xX3mFuQRM2v56YWWnkk9RQN4jHKMc8LF_c3LyHV-x7Jor27Zo9-_1GMvTSGz9Ba_TD-POSNntgbxlwJ8j3V5-TQuVILz8p__xoxo23tI26SZ_2fi5_wy2d7xhWwNa7-l88V9x-3nvsWhztW7jNNU2pYmvmx-CH-U8gabyOAuHVIl9Kazd2UBEMA9HVlPyaSk-EVE9rk3YO-zKirTkc7DBlOdpINa8Jr777qrTtDw8VTGbJLUX3iz41qVJFNcKR-mjP_pVOwDupbi7fQT-Vuo3gY0rR7KLTi76hYwXthKxO9EgKJQFEMht_2m00]--></g></svg>