<svg xmlns="http://www.w3.org/2000/svg" viewBox="0 0 18 16">
  <path d="M17.844 14.781a.478.478 0 0 1 .156.344c0 .146-.052.27-.156.375l-.344.344a.512.512 0 0 1-.375.156.478.478 0 0 1-.344-.156l-2.531-2.531A3.975 3.975 0 0 1 12 14c-.73 0-1.406-.177-2.031-.531A3.963 3.963 0 0 1 8.53 12.03 4.05 4.05 0 0 1 8 10c0-1.104.385-2.042 1.156-2.813C9.948 6.396 10.896 6 12 6c1.104 0 2.042.396 2.813 1.188C15.604 7.957 16 8.896 16 10c0 .813-.23 1.563-.688 2.25l2.532 2.531Zm-7.625-3c.5.48 1.094.719 1.781.719.688 0 1.27-.24 1.75-.719.5-.5.75-1.094.75-1.781 0-.688-.25-1.27-.75-1.75-.48-.5-1.063-.75-1.75-.75-.688 0-1.281.25-1.781.75A2.382 2.382 0 0 0 9.5 10c0 .688.24 1.281.719 1.781ZM1.5 14.5h8.344c.666.313 1.354.48 2.062.5a1.457 1.457 0 0 1-.562.719c-.25.187-.531.281-.844.281h-9c-.417 0-.77-.146-1.063-.438A1.447 1.447 0 0 1 0 14.5v-13C0 1.083.146.73.438.437A1.447 1.447 0 0 1 1.5 0h6.375c.417 0 .77.146 1.063.438l2.624 2.624c.292.292.438.646.438 1.063V5c-.73 0-1.448.167-2.156.5H7.25a.723.723 0 0 1-.531-.219.723.723 0 0 1-.219-.531V1.5h-5v13ZM8 1.625V4h2.375L8 1.625Z"></path>
</svg>