<?xml version="1.0" encoding="utf-8" standalone="no"?><svg width="997" height="412" viewBox="0 0 1037 452" zoomAndPan="disable" xmlns="http://www.w3.org/2000/svg"  xmlns:xlink="http://www.w3.org/1999/xlink"><g class="drawarea" id="svg_g" transform="translate(21.29742559744303,33.20821287561191) scale(0.7887935406460382)" title="svg_title" version="1.1" xmlns="http://www.w3.org/2000/svg"><g transform="translate(0,372)" fill="none" font-size="10" font-family="sans-serif" text-anchor="middle"><path class="domain" stroke="currentColor" d="M40.5,6V0.5H957.5V6"></path><g class="tick" opacity="1" transform="translate(40.5,0)"><line stroke="currentColor" y2="6"></line><text fill="currentColor" y="0" dy="0.3em" transform="translate(0,10)rotate(-90)" style="text-anchor: end;">2013-07-29T00:00:00</text></g><g class="tick" opacity="1" transform="translate(116.91666666666666,0)"><line stroke="currentColor" y2="6"></line><text fill="currentColor" y="0" dy="0.3em" transform="translate(0,10)rotate(-90)" style="text-anchor: end;">2013-07-29T12:00:00</text></g><g class="tick" opacity="1" transform="translate(193.33333333333334,0)"><line stroke="currentColor" y2="6"></line><text fill="currentColor" y="0" dy="0.3em" transform="translate(0,10)rotate(-90)" style="text-anchor: end;">2013-07-30T00:00:00</text></g><g class="tick" opacity="1" transform="translate(269.75,0)"><line stroke="currentColor" y2="6"></line><text fill="currentColor" y="0" dy="0.3em" transform="translate(0,10)rotate(-90)" style="text-anchor: end;">2013-07-30T12:00:00</text></g><g class="tick" opacity="1" transform="translate(346.1666666666667,0)"><line stroke="currentColor" y2="6"></line><text fill="currentColor" y="0" dy="0.3em" transform="translate(0,10)rotate(-90)" style="text-anchor: end;">2013-07-31T00:00:00</text></g><g class="tick" opacity="1" transform="translate(422.5833333333333,0)"><line stroke="currentColor" y2="6"></line><text fill="currentColor" y="0" dy="0.3em" transform="translate(0,10)rotate(-90)" style="text-anchor: end;">2013-07-31T12:00:00</text></g><g class="tick" opacity="1" transform="translate(499,0)"><line stroke="currentColor" y2="6"></line><text fill="currentColor" y="0" dy="0.3em" transform="translate(0,10)rotate(-90)" style="text-anchor: end;">2013-08-01T00:00:00</text></g><g class="tick" opacity="1" transform="translate(575.4166666666666,0)"><line stroke="currentColor" y2="6"></line><text fill="currentColor" y="0" dy="0.3em" transform="translate(0,10)rotate(-90)" style="text-anchor: end;">2013-08-01T12:00:00</text></g><g class="tick" opacity="1" transform="translate(651.8333333333334,0)"><line stroke="currentColor" y2="6"></line><text fill="currentColor" y="0" dy="0.3em" transform="translate(0,10)rotate(-90)" style="text-anchor: end;">2013-08-02T00:00:00</text></g><g class="tick" opacity="1" transform="translate(728.25,0)"><line stroke="currentColor" y2="6"></line><text fill="currentColor" y="0" dy="0.3em" transform="translate(0,10)rotate(-90)" style="text-anchor: end;">2013-08-02T12:00:00</text></g><g class="tick" opacity="1" transform="translate(804.6666666666666,0)"><line stroke="currentColor" y2="6"></line><text fill="currentColor" y="0" dy="0.3em" transform="translate(0,10)rotate(-90)" style="text-anchor: end;">2013-08-03T00:00:00</text></g><g class="tick" opacity="1" transform="translate(881.0833333333334,0)"><line stroke="currentColor" y2="6"></line><text fill="currentColor" y="0" dy="0.3em" transform="translate(0,10)rotate(-90)" style="text-anchor: end;">2013-08-03T12:00:00</text></g><g class="tick" opacity="1" transform="translate(957.5,0)"><line stroke="currentColor" y2="6"></line><text fill="currentColor" y="0" dy="0.3em" transform="translate(0,10)rotate(-90)" style="text-anchor: end;">2013-08-04T00:00:00</text></g></g><g transform="translate(40, 0)" fill="none" font-size="10" font-family="sans-serif" text-anchor="end"><path class="domain" stroke="currentColor" d="M-6,372.5H0.5V40.5H-6"></path><g class="tick" opacity="1" transform="translate(0,372.5)"><line stroke="currentColor" x2="-6"></line><text fill="currentColor" x="-9" dy="0.32em">8</text></g><g class="tick" opacity="1" transform="translate(0,342.3181818181818)"><line stroke="currentColor" x2="-6"></line><text fill="currentColor" x="-9" dy="0.32em">10</text></g><g class="tick" opacity="1" transform="translate(0,312.13636363636357)"><line stroke="currentColor" x2="-6"></line><text fill="currentColor" x="-9" dy="0.32em">12</text></g><g class="tick" opacity="1" transform="translate(0,281.9545454545455)"><line stroke="currentColor" x2="-6"></line><text fill="currentColor" x="-9" dy="0.32em">14</text></g><g class="tick" opacity="1" transform="translate(0,251.77272727272725)"><line stroke="currentColor" x2="-6"></line><text fill="currentColor" x="-9" dy="0.32em">16</text></g><g class="tick" opacity="1" transform="translate(0,221.5909090909091)"><line stroke="currentColor" x2="-6"></line><text fill="currentColor" x="-9" dy="0.32em">18</text></g><g class="tick" opacity="1" transform="translate(0,191.4090909090909)"><line stroke="currentColor" x2="-6"></line><text fill="currentColor" x="-9" dy="0.32em">20</text></g><g class="tick" opacity="1" transform="translate(0,161.22727272727275)"><line stroke="currentColor" x2="-6"></line><text fill="currentColor" x="-9" dy="0.32em">22</text></g><g class="tick" opacity="1" transform="translate(0,131.04545454545456)"><line stroke="currentColor" x2="-6"></line><text fill="currentColor" x="-9" dy="0.32em">24</text></g><g class="tick" opacity="1" transform="translate(0,100.86363636363635)"><line stroke="currentColor" x2="-6"></line><text fill="currentColor" x="-9" dy="0.32em">26</text></g><g class="tick" opacity="1" transform="translate(0,70.68181818181819)"><line stroke="currentColor" x2="-6"></line><text fill="currentColor" x="-9" dy="0.32em">28</text></g><g class="tick" opacity="1" transform="translate(0,40.5)"><line stroke="currentColor" x2="-6"></line><text fill="currentColor" x="-9" dy="0.32em">30</text></g></g><path fill="none" stroke="#e15759" stroke-width="1.5" d="M40,145.63636363636365L192.83333333333334,145.63636363636365L345.6666666666667,145.63636363636365L498.5,85.27272727272728L651.3333333333334,85.27272727272728L804.1666666666666,85.27272727272728L957,85.27272727272728"></path><path fill="none" stroke="#76b7b2" stroke-width="1.5" d="M40,341.8181818181818L192.83333333333334,341.8181818181818L345.6666666666667,341.8181818181818L498.5,311.63636363636357L651.3333333333334,311.63636363636357L804.1666666666666,311.63636363636357L957,311.63636363636357"></path><g class="legend" transform="translate(0,0)"><rect x="979" width="18" height="18" style="fill: rgb(225, 87, 89);"></rect><text x="1002" y="9" dy=".35em">high</text></g><g class="legend" transform="translate(0,20)"><rect x="979" width="18" height="18" style="fill: rgb(118, 183, 178);"></rect><text x="1002" y="9" dy=".35em">low</text></g></g></svg>