<?xml version="1.0" encoding="utf-8" standalone="no"?><svg width="997" height="412" viewBox="0 0 1037 452" zoomAndPan="disable" xmlns="http://www.w3.org/2000/svg"  xmlns:xlink="http://www.w3.org/1999/xlink"><g class="drawarea" id="svg_g" transform="translate(52.38756401019616,9.253080509132102) scale(0.8386483988583303)" title="svg_title" version="1.1" xmlns="http://www.w3.org/2000/svg"><g transform="translate(0,372)" fill="none" font-size="10" font-family="sans-serif" text-anchor="middle"><path class="domain" stroke="currentColor" d="M40.5,6V0.5H957.5V6"></path><g class="tick" opacity="1" transform="translate(40.5,0)"><line stroke="currentColor" y2="6"></line><text fill="currentColor" y="0" dy="0.3em" transform="translate(0,10)rotate(-90)" style="text-anchor: end;">2005-01-01T00:00:00</text></g><g class="tick" opacity="1" transform="translate(142.32689382415577,0)"><line stroke="currentColor" y2="6"></line><text fill="currentColor" y="0" dy="0.3em" transform="translate(0,10)rotate(-90)" style="text-anchor: end;">2006-01-01T00:00:00</text></g><g class="tick" opacity="1" transform="translate(244.15378764831155,0)"><line stroke="currentColor" y2="6"></line><text fill="currentColor" y="0" dy="0.3em" transform="translate(0,10)rotate(-90)" style="text-anchor: end;">2007-01-01T00:00:00</text></g><g class="tick" opacity="1" transform="translate(345.98068147246727,0)"><line stroke="currentColor" y2="6"></line><text fill="currentColor" y="0" dy="0.3em" transform="translate(0,10)rotate(-90)" style="text-anchor: end;">2008-01-01T00:00:00</text></g><g class="tick" opacity="1" transform="translate(448.0865530879221,0)"><line stroke="currentColor" y2="6"></line><text fill="currentColor" y="0" dy="0.3em" transform="translate(0,10)rotate(-90)" style="text-anchor: end;">2009-01-01T00:00:00</text></g><g class="tick" opacity="1" transform="translate(549.9134469120778,0)"><line stroke="currentColor" y2="6"></line><text fill="currentColor" y="0" dy="0.3em" transform="translate(0,10)rotate(-90)" style="text-anchor: end;">2010-01-01T00:00:00</text></g><g class="tick" opacity="1" transform="translate(651.7403407362336,0)"><line stroke="currentColor" y2="6"></line><text fill="currentColor" y="0" dy="0.3em" transform="translate(0,10)rotate(-90)" style="text-anchor: end;">2011-01-01T00:00:00</text></g><g class="tick" opacity="1" transform="translate(753.5672345603894,0)"><line stroke="currentColor" y2="6"></line><text fill="currentColor" y="0" dy="0.3em" transform="translate(0,10)rotate(-90)" style="text-anchor: end;">2012-01-01T00:00:00</text></g><g class="tick" opacity="1" transform="translate(855.6731061758442,0)"><line stroke="currentColor" y2="6"></line><text fill="currentColor" y="0" dy="0.3em" transform="translate(0,10)rotate(-90)" style="text-anchor: end;">2013-01-01T00:00:00</text></g><g class="tick" opacity="1" transform="translate(957.5,0)"><line stroke="currentColor" y2="6"></line><text fill="currentColor" y="0" dy="0.3em" transform="translate(0,10)rotate(-90)" style="text-anchor: end;">2014-01-01T00:00:00</text></g></g><g transform="translate(40, 0)" fill="none" font-size="10" font-family="sans-serif" text-anchor="end"><path class="domain" stroke="currentColor" d="M-6,372.5H0.5V40.5H-6"></path><g class="tick" opacity="1" transform="translate(0,372.5)"><line stroke="currentColor" x2="-6"></line><text fill="currentColor" x="-9" dy="0.32em">160,000</text></g><g class="tick" opacity="1" transform="translate(0,331)"><line stroke="currentColor" x2="-6"></line><text fill="currentColor" x="-9" dy="0.32em">170,000</text></g><g class="tick" opacity="1" transform="translate(0,289.5)"><line stroke="currentColor" x2="-6"></line><text fill="currentColor" x="-9" dy="0.32em">180,000</text></g><g class="tick" opacity="1" transform="translate(0,248)"><line stroke="currentColor" x2="-6"></line><text fill="currentColor" x="-9" dy="0.32em">190,000</text></g><g class="tick" opacity="1" transform="translate(0,206.5)"><line stroke="currentColor" x2="-6"></line><text fill="currentColor" x="-9" dy="0.32em">200,000</text></g><g class="tick" opacity="1" transform="translate(0,165)"><line stroke="currentColor" x2="-6"></line><text fill="currentColor" x="-9" dy="0.32em">210,000</text></g><g class="tick" opacity="1" transform="translate(0,123.5)"><line stroke="currentColor" x2="-6"></line><text fill="currentColor" x="-9" dy="0.32em">220,000</text></g><g class="tick" opacity="1" transform="translate(0,82)"><line stroke="currentColor" x2="-6"></line><text fill="currentColor" x="-9" dy="0.32em">230,000</text></g><g class="tick" opacity="1" transform="translate(0,40.5)"><line stroke="currentColor" x2="-6"></line><text fill="currentColor" x="-9" dy="0.32em">240,000</text></g></g><path fill="none" stroke="#669ee0" stroke-width="2" d="M41.67386674779434,102.25L143.77973836324918,164.5L653.4721630666261,206L756.1359902646791,156.2L856.5679951323394,326.35"></path></g></svg>