<?xml version="1.0" encoding="utf-8" standalone="no"?><svg width="997" height="412" viewBox="0 0 1037 452" zoomAndPan="disable" xmlns="http://www.w3.org/2000/svg"  xmlns:xlink="http://www.w3.org/1999/xlink"><g class="drawarea" id="svg_g" transform="translate(21.29742559744303,33.20821287561191) scale(0.7887935406460382)" title="svg_title" version="1.1" xmlns="http://www.w3.org/2000/svg"><g transform="translate(0,372)" fill="none" font-size="10" font-family="sans-serif" text-anchor="middle"><path class="domain" stroke="currentColor" d="M40.5,6V0.5H957.5V6"></path><g class="tick" opacity="1" transform="translate(40.5,0)"><line stroke="currentColor" y2="6"></line><text fill="currentColor" y="0" dy="0.3em" transform="translate(0,10)rotate(-90)" style="text-anchor: end;">2013-06-23T00:00:00</text></g><g class="tick" opacity="1" transform="translate(132.2,0)"><line stroke="currentColor" y2="6"></line><text fill="currentColor" y="0" dy="0.3em" transform="translate(0,10)rotate(-90)" style="text-anchor: end;">2013-06-30T00:00:00</text></g><g class="tick" opacity="1" transform="translate(223.9,0)"><line stroke="currentColor" y2="6"></line><text fill="currentColor" y="0" dy="0.3em" transform="translate(0,10)rotate(-90)" style="text-anchor: end;">2013-07-07T00:00:00</text></g><g class="tick" opacity="1" transform="translate(315.59999999999997,0)"><line stroke="currentColor" y2="6"></line><text fill="currentColor" y="0" dy="0.3em" transform="translate(0,10)rotate(-90)" style="text-anchor: end;">2013-07-14T00:00:00</text></g><g class="tick" opacity="1" transform="translate(407.3,0)"><line stroke="currentColor" y2="6"></line><text fill="currentColor" y="0" dy="0.3em" transform="translate(0,10)rotate(-90)" style="text-anchor: end;">2013-07-21T00:00:00</text></g><g class="tick" opacity="1" transform="translate(499,0)"><line stroke="currentColor" y2="6"></line><text fill="currentColor" y="0" dy="0.3em" transform="translate(0,10)rotate(-90)" style="text-anchor: end;">2013-07-28T00:00:00</text></g><g class="tick" opacity="1" transform="translate(590.6999999999999,0)"><line stroke="currentColor" y2="6"></line><text fill="currentColor" y="0" dy="0.3em" transform="translate(0,10)rotate(-90)" style="text-anchor: end;">2013-08-04T00:00:00</text></g><g class="tick" opacity="1" transform="translate(682.4,0)"><line stroke="currentColor" y2="6"></line><text fill="currentColor" y="0" dy="0.3em" transform="translate(0,10)rotate(-90)" style="text-anchor: end;">2013-08-11T00:00:00</text></g><g class="tick" opacity="1" transform="translate(774.1,0)"><line stroke="currentColor" y2="6"></line><text fill="currentColor" y="0" dy="0.3em" transform="translate(0,10)rotate(-90)" style="text-anchor: end;">2013-08-18T00:00:00</text></g><g class="tick" opacity="1" transform="translate(865.8000000000001,0)"><line stroke="currentColor" y2="6"></line><text fill="currentColor" y="0" dy="0.3em" transform="translate(0,10)rotate(-90)" style="text-anchor: end;">2013-08-25T00:00:00</text></g><g class="tick" opacity="1" transform="translate(957.5,0)"><line stroke="currentColor" y2="6"></line><text fill="currentColor" y="0" dy="0.3em" transform="translate(0,10)rotate(-90)" style="text-anchor: end;">2013-09-01T00:00:00</text></g></g><g transform="translate(40, 0)" fill="none" font-size="10" font-family="sans-serif" text-anchor="end"><path class="domain" stroke="currentColor" d="M-6,372.5H0.5V40.5H-6"></path><g class="tick" opacity="1" transform="translate(0,372.5)"><line stroke="currentColor" x2="-6"></line><text fill="currentColor" x="-9" dy="0.32em">13</text></g><g class="tick" opacity="1" transform="translate(0,331)"><line stroke="currentColor" x2="-6"></line><text fill="currentColor" x="-9" dy="0.32em">14</text></g><g class="tick" opacity="1" transform="translate(0,289.5)"><line stroke="currentColor" x2="-6"></line><text fill="currentColor" x="-9" dy="0.32em">15</text></g><g class="tick" opacity="1" transform="translate(0,248)"><line stroke="currentColor" x2="-6"></line><text fill="currentColor" x="-9" dy="0.32em">16</text></g><g class="tick" opacity="1" transform="translate(0,206.5)"><line stroke="currentColor" x2="-6"></line><text fill="currentColor" x="-9" dy="0.32em">17</text></g><g class="tick" opacity="1" transform="translate(0,165)"><line stroke="currentColor" x2="-6"></line><text fill="currentColor" x="-9" dy="0.32em">18</text></g><g class="tick" opacity="1" transform="translate(0,123.5)"><line stroke="currentColor" x2="-6"></line><text fill="currentColor" x="-9" dy="0.32em">19</text></g><g class="tick" opacity="1" transform="translate(0,82)"><line stroke="currentColor" x2="-6"></line><text fill="currentColor" x="-9" dy="0.32em">20</text></g><g class="tick" opacity="1" transform="translate(0,40.5)"><line stroke="currentColor" x2="-6"></line><text fill="currentColor" x="-9" dy="0.32em">21</text></g></g><path fill="none" stroke="#e15759" stroke-width="1.5" d="M92.4,143.75L184.1,117.07142857142858L275.79999999999995,105.21428571428578L367.5,114.84821428571438L459.2,137.2285714285715L550.9,128.92857142857156L642.5999999999999,148.49285714285713L734.3,185.84285714285707L825.9999999999999,212.52142857142846L917.7,233.27142857142846"></path><path fill="none" stroke="#76b7b2" stroke-width="1.5" d="M92.4,143.75L184.1,90.3928571428572L275.79999999999995,81.5L367.5,143.75L459.2,226.75L550.9,102.25L642.5999999999999,188.21428571428578L734.3,268.25L825.9999999999999,277.1428571428571L917.7,330.5"></path><g style="fill: rgb(225, 87, 89);"><circle cx="92.4" cy="143.75" r="3" stroke="white"></circle><circle cx="184.1" cy="117.07142857142858" r="3" stroke="white"></circle><circle cx="275.79999999999995" cy="105.21428571428578" r="3" stroke="white"></circle><circle cx="367.5" cy="114.84821428571438" r="3" stroke="white"></circle><circle cx="459.2" cy="137.2285714285715" r="3" stroke="white"></circle><circle cx="550.9" cy="128.92857142857156" r="3" stroke="white"></circle><circle cx="642.5999999999999" cy="148.49285714285713" r="3" stroke="white"></circle><circle cx="734.3" cy="185.84285714285707" r="3" stroke="white"></circle><circle cx="825.9999999999999" cy="212.52142857142846" r="3" stroke="white"></circle><circle cx="917.7" cy="233.27142857142846" r="3" stroke="white"></circle></g><g style="fill: rgb(118, 183, 178);"><circle cx="92.4" cy="143.75" r="3" stroke="white"></circle><circle cx="184.1" cy="90.3928571428572" r="3" stroke="white"></circle><circle cx="275.79999999999995" cy="81.5" r="3" stroke="white"></circle><circle cx="367.5" cy="143.75" r="3" stroke="white"></circle><circle cx="459.2" cy="226.75" r="3" stroke="white"></circle><circle cx="550.9" cy="102.25" r="3" stroke="white"></circle><circle cx="642.5999999999999" cy="188.21428571428578" r="3" stroke="white"></circle><circle cx="734.3" cy="268.25" r="3" stroke="white"></circle><circle cx="825.9999999999999" cy="277.1428571428571" r="3" stroke="white"></circle><circle cx="917.7" cy="330.5" r="3" stroke="white"></circle></g><g class="legend" transform="translate(0,0)"><rect x="979" width="18" height="18" style="fill: rgb(225, 87, 89);"></rect><text x="1002" y="9" dy=".35em">four_week_mov_avg</text></g><g class="legend" transform="translate(0,20)"><rect x="979" width="18" height="18" style="fill: rgb(118, 183, 178);"></rect><text x="1002" y="9" dy=".35em">week_avg</text></g></g></svg>