<?xml version="1.0" encoding="utf-8"?>
<svg version="1.1" xmlns:xlink="http://www.w3.org/1999/xlink" class="block mx-auto" width="60" height="60" viewBox="0 0 60 60" fill="none"
  xmlns="http://www.w3.org/2000/svg">
    <path
      d="M29.9986 0C13.4301 0 0 13.4328 0 29.9986C0 46.5645 13.4301 59.9973 29.9986 59.9973C46.5672 59.9973 59.9973 46.5645 59.9973 29.9986C59.9973 13.4328 46.5672 0 29.9986 0ZM12.8836 20.6242V20.4155C17.0766 19.8966 19.5533 17.4198 20.0723 13.2269H20.281C20.8 17.4198 23.2767 19.8966 27.4697 20.4155V20.6242C23.2767 21.1432 20.8 23.62 20.281 27.8129H20.0723C19.5533 23.62 17.0766 21.1432 12.8836 20.6242V20.6242ZM48.0555 33.8346C39.7629 34.8616 34.8616 39.7629 33.8346 48.0555H33.42C32.393 39.7629 27.4917 34.8643 19.1991 33.8346V33.42C27.4917 32.393 32.3903 27.4916 33.42 19.1991H33.8346C34.8616 27.4916 39.7629 32.393 48.0555 33.42V33.8346V33.8346Z"
      fill="#EC1218"></path>
</svg>