<?xml version="1.0" encoding="UTF-8" standalone="no"?>
<!-- Generator: Adobe Illustrator 23.0.1, SVG Export Plug-In . SVG Version: 6.00 Build 0)  -->

<svg
  version="1.1"
  id="Layer_1"
  x="0px"
  y="0px"
  viewBox="0 0 98 98"
  xml:space="preserve"
  sodipodi:docname="CB Logomark.svg"
  width="98"
  height="98"
  inkscape:version="1.1 (c4e8f9e, 2021-05-24)"
  xmlns:inkscape="http://www.inkscape.org/namespaces/inkscape"
  xmlns:sodipodi="http://sodipodi.sourceforge.net/DTD/sodipodi-0.dtd"
  xmlns="http://www.w3.org/2000/svg"
  xmlns:svg="http://www.w3.org/2000/svg"><defs
   id="defs190" /><sodipodi:namedview
   id="namedview188"
   pagecolor="#ffffff"
   bordercolor="#666666"
   borderopacity="1.0"
   inkscape:pageshadow="2"
   inkscape:pageopacity="0.0"
   inkscape:pagecheckerboard="0"
   showgrid="false"
   fit-margin-top="0"
   fit-margin-left="0"
   fit-margin-right="0"
   fit-margin-bottom="0"
   inkscape:zoom="6.21"
   inkscape:cx="32.286634"
   inkscape:cy="40.660225"
   inkscape:window-width="1312"
   inkscape:window-height="847"
   inkscape:window-x="0"
   inkscape:window-y="25"
   inkscape:window-maximized="0"
   inkscape:current-layer="Layer_1" />
<style
   type="text/css"
   id="style184">
	.st0{fill:#EA2328;}
</style>
<path
   id="Logo-Icon"
   class="st0"
   d="m 82.1,57.6 c 0,2.9 -1.7,5.5 -5,6.1 -5.8,1 -17.9,1.6 -28.1,1.6 -10.2,0 -22.3,-0.7 -28.1,-1.6 -3.3,-0.6 -5,-3.2 -5,-6.1 V 38.4 c 0,-2.9 2.3,-5.7 5,-6.1 1.7,-0.3 5.6,-0.6 8.8,-0.6 1.2,0 2.2,0.9 2.2,2.3 V 47.3 C 37.8,47.3 43,47 49,47 c 6,0 11.2,0.3 17.2,0.3 V 34.1 c 0,-1.4 1,-2.3 2.2,-2.3 3.2,0 7.1,0.3 8.8,0.6 2.7,0.4 5,3.2 5,6.1 z M 49,0 C 21.9,0 0,21.9 0,49 0,76.1 21.9,98 49,98 76.1,98 98,76.1 98,49 98,21.9 76.1,0 49,0 Z" />
</svg>